<?xml version="1.0" standalone="no"?><!DOCTYPE svg PUBLIC "-//W3C//DTD SVG 1.1//EN" "http://www.w3.org/Graphics/SVG/1.1/DTD/svg11.dtd"><svg t="1590455293963" class="icon" viewBox="0 0 1024 1024" version="1.1" xmlns="http://www.w3.org/2000/svg" p-id="2684" xmlns:xlink="http://www.w3.org/1999/xlink" width="200" height="200"><defs><style type="text/css"></style></defs><path d="M800.44 857.651H223.831c-31.713 0-57.518-25.8-57.518-57.513v-576.63c0-31.713 25.805-57.518 57.518-57.518h576.61c31.713 0 57.512 25.805 57.512 57.518v576.635c0.005 31.709-25.794 57.508-57.513 57.508zM223.831 218.235a5.274 5.274 0 0 0-5.268 5.268v576.635a5.274 5.274 0 0 0 5.268 5.264h576.61a5.268 5.268 0 0 0 5.263-5.264v-576.63a5.274 5.274 0 0 0-5.264-5.268H223.831z" fill="#2C2C2C" p-id="2685"></path><path d="M198.682 354.222H831.83v52.25h-633.15z" fill="#2C2C2C" p-id="2686"></path><path d="M390.871 361.467h52.25v452.188h-52.25z" fill="#2C2C2C" p-id="2687"></path></svg>